Coordinates
version=1
nRows=11
nColumns=36
inDegrees=yes

Units are S.I. units (second, meters, Newtons, ...)
If the header above contains a line with 'inDegrees', this indicates whether rotational values are in degrees (yes) or radians (no).

endheader
time	pelvis_tilt	pelvis_list	pelvis_rotation	pelvis_tx	pelvis_ty	pelvis_tz	hip_flexion_r	hip_adduction_r	hip_rotation_r	knee_angle_r	knee_angle_r_beta	ankle_angle_r	subtalar_angle_r	mtp_angle_r	hip_flexion_l	hip_adduction_l	hip_rotation_l	knee_angle_l	knee_angle_l_beta	ankle_angle_l	subtalar_angle_l	mtp_angle_l	lumbar_extension	lumbar_bending	lumbar_rotation	arm_flex_r	arm_add_r	arm_rot_r	elbow_flex_r	pro_sup_r	arm_flex_l	arm_add_l	arm_rot_l	elbow_flex_l	pro_sup_l
      0.00000000	     -3.00471922	     -0.44802974	      3.71846515	     -1.07924417	      1.36294665	     -0.05250907	      6.52975378	      2.27607667	      4.99744282	      7.76299069	      0.13548975	     -1.14070220	    -16.72058137	     -5.62109729	     10.34030252	      0.56804560	      5.19630352	     11.73044284	      0.20473485	      4.47598825	     -5.02070677	     -5.62109729	    -10.76995404	      1.22340252	      4.37718566	     -7.90207464	    -11.17675271	     -2.00980049	     47.31041910	     84.97845964	     -5.47408326	     -7.83073052	      1.33167678	     37.78940086	     80.17493530
      0.01694910	     -4.59503485	     -0.33782250	      2.62061478	     -1.07754503	      1.36248946	     -0.05086420	      9.30060767	      2.28182642	      5.77637911	      9.74645237	      0.17010768	      3.06221996	    -14.69998650	     -6.03189372	     13.29303811	      0.65956482	      4.61227081	     14.52639870	      0.25353349	      5.34621072	     -5.61929413	     -6.03189372	     -8.02993619	      1.40687966	      4.88382289	     -9.16006292	    -10.30517932	     -5.25876542	     49.03834404	     84.98063662	     -6.68305322	     -5.89391185	     -5.94626930	     36.74695367	     81.47375663
      0.03389830	     -5.65202960	      0.24585994	      1.85711049	     -1.07627594	      1.36325454	     -0.04860053	     10.33133651	      1.77344189	      4.85349853	      9.95379240	      0.17372645	      4.44490235	    -13.13877821	     -6.19428029	     14.36113610	      0.79496748	      4.37239596	     15.52469858	      0.27095711	      4.51292061	     -8.46637958	     -6.19428029	     -6.38973953	      0.54973848	      5.95900877	    -10.73608789	     -9.57570675	     -7.60835267	     50.15910023	     85.83850599	     -6.84264451	     -6.20639957	     -5.49577940	     36.48846803	     84.59491346
      0.05084750	     -5.66542718	      0.34130837	      1.18511796	     -1.07584109	      1.36263135	     -0.04706018	     10.60100763	      1.94713477	      4.67600844	     10.50532603	      0.18335253	      5.27069907	    -12.13843465	     -6.49759321	     14.57880511	      0.72841172	      4.61874834	     16.68652626	      0.29123482	      4.40773575	    -10.97739880	     -6.49759321	     -6.32501969	      0.38936481	      6.78285273	    -11.57408859	     -9.78120546	     -7.97540693	     51.21803807	     86.76750759	     -6.92308928	     -6.47900282	     -5.26617693	     36.81287214	     87.74826238
      0.06779660	     -5.62410415	      0.43105512	      0.71552301	     -1.07602598	      1.36260634	     -0.04614500	     10.68853543	      2.06561164	      4.51274610	     10.64047960	      0.18571140	      5.28530498	    -11.73740632	     -6.58065772	     14.70298919	      0.71107969	      4.72151515	     17.49908244	      0.30541660	      3.67266555	    -13.28145893	     -6.58065772	     -6.34156697	      0.48005895	      7.16010518	    -11.71949575	    -10.00591558	     -7.37620452	     51.46523690	     85.48566726	     -7.07212965	     -6.41098459	     -5.13952721	     37.49263107	     86.42261224
      0.08474580	     -5.68083159	      0.54787887	      0.40134784	     -1.07553146	      1.36187520	     -0.04535089	     10.65158007	      2.01319119	      4.17500308	     10.45905528	      0.18254495	      5.06904033	    -11.32956168	     -6.63390565	     14.44776282	      0.69669973	      4.85236684	     17.34979389	      0.30281103	      3.38080323	    -14.33701305	     -6.63390565	     -5.99925922	      0.42338433	      7.37447646	    -12.15155754	    -10.12580668	     -7.08692390	     51.52776241	     84.63724618	     -7.12625074	     -6.38765792	     -5.12327122	     37.94522924	     85.51967126
      0.10169490	     -5.84050993	      0.44133535	      0.11892437	     -1.07559253	      1.35793094	     -0.04509274	     10.88105234	      2.13572729	      3.82868325	     10.48565792	      0.18300925	      4.96021890	    -11.04726363	     -6.74058804	     14.12359498	      0.46423004	      5.10699649	     16.49712091	      0.28792908	      3.59906918	    -14.41214014	     -6.74058804	     -5.55102851	      0.59988568	      7.38582781	    -12.39099897	    -10.33541424	     -6.76445579	     51.60287199	     84.84293818	     -7.03741139	     -6.19866031	     -5.30627387	     37.83889504	     85.47085941
      0.11864410	     -5.79365891	      0.27241358	     -0.11644997	     -1.07538543	      1.35838652	     -0.04480632	     10.88722892	      2.33885964	      3.69673004	     10.49993425	      0.18325842	      4.64894139	    -11.10452753	     -6.78716195	     13.54603214	      0.19062066	      4.97081343	     15.39652933	      0.26872013	      3.48723535	    -13.99700666	     -6.78716195	     -5.48246994	      0.79887054	      7.42594679	    -12.47107903	    -10.26150916	     -6.61623574	     51.12301250	     84.19517233	     -6.84197963	     -5.95106177	     -5.45224921	     38.12423302	     84.68866040
      0.13559320	     -5.90497168	      0.08052946	     -0.13791083	     -1.07549202	      1.35842291	     -0.04535006	     10.78359378	      2.50443144	      3.74470768	      9.90773832	      0.17292266	      4.27075168	    -11.23510653	     -7.03064733	     13.30023764	     -0.03352567	      4.96584776	     14.53164238	      0.25362501	      3.38687726	    -13.46977413	     -7.03064733	     -5.25402859	      0.97918625	      7.02981432	    -12.45484677	    -10.14268982	     -7.03707364	     50.23305962	     88.64214954	     -6.55756164	     -5.79608774	     -5.92563525	     37.74538818	     87.95148387
      0.15254240	     -6.03343257	     -0.08784464	     -0.09788417	     -1.07514259	      1.35535063	     -0.04526886	     10.75539924	      2.68534172	      3.75042854	      9.56683671	      0.16697280	      3.99421476	    -11.49823480	     -7.05560253	     13.01745170	     -0.26808772	      4.78361250	     13.64817609	      0.23820561	      3.39519745	    -12.78897327	     -7.05560253	     -5.11994496	      1.10205826	      6.59016162	    -12.39179287	    -10.17172975	     -6.67032256	     49.56588099	     87.72069328	     -6.47116994	     -5.75252325	     -6.02073594	     37.55354884	     86.97808185
      0.16949150	     -6.15506005	     -0.18968040	     -0.10524651	     -1.06878281	      1.35540717	     -0.04147655	     10.48199265	      2.91043092	      4.00392125	      8.88760912	      0.15511804	      3.84661720	    -11.23831594	     -7.05955670	     12.51190436	     -0.51546464	      4.68821467	     12.76290380	      0.22275469	      3.45098866	    -12.35785692	     -7.05955670	     -4.76233405	      1.07611376	      6.39188250	    -12.54314658	     -9.86386290	     -6.70418064	     49.12895361	     87.77578804	     -6.61387522	     -5.84943120	     -6.09235198	     37.43015848	     87.02018873
